<mxfile host="app.diagrams.net" modified="2023-12-30T14:47:10.575Z" agent="Mozilla/5.0 (X11; Linux x86_64) AppleWebKit/537.36 (KHTML, like Gecko) Chrome/120.0.0.0 Safari/537.36" etag="WH3vKzA9RXyUfc5EHkbz" version="22.1.13" type="github">
  <diagram name="Page-1" id="TiA0AvzCaLj1JNWqYDhG">
    <mxGraphModel dx="968" dy="513" grid="1" gridSize="10" guides="1" tooltips="1" connect="1" arrows="1" fold="1" page="1" pageScale="1" pageWidth="827" pageHeight="1169" math="0" shadow="0">
      <root>
        <mxCell id="0" />
        <mxCell id="1" parent="0" />
        <mxCell id="9iry1XHoX7ZCfdPzpy1v-1" value="admin" style="shape=umlActor;html=1;verticalLabelPosition=bottom;verticalAlign=top;align=center;" vertex="1" parent="1">
          <mxGeometry x="870" y="880" width="50" height="70" as="geometry" />
        </mxCell>
        <mxCell id="9iry1XHoX7ZCfdPzpy1v-2" value="user" style="shape=umlActor;html=1;verticalLabelPosition=bottom;verticalAlign=top;align=center;" vertex="1" parent="1">
          <mxGeometry x="90" y="150" width="30" height="60" as="geometry" />
        </mxCell>
        <mxCell id="9iry1XHoX7ZCfdPzpy1v-14" value="Resturant Finder" style="swimlane;" vertex="1" parent="1">
          <mxGeometry x="240" y="20" width="510" height="1290" as="geometry" />
        </mxCell>
        <mxCell id="9iry1XHoX7ZCfdPzpy1v-20" value="Account management" style="swimlane;whiteSpace=wrap;html=1;" vertex="1" parent="9iry1XHoX7ZCfdPzpy1v-14">
          <mxGeometry y="20" width="510" height="290" as="geometry" />
        </mxCell>
        <mxCell id="9iry1XHoX7ZCfdPzpy1v-12" value="Create account" style="ellipse;whiteSpace=wrap;html=1;" vertex="1" parent="9iry1XHoX7ZCfdPzpy1v-20">
          <mxGeometry x="180" y="30" width="140" height="70" as="geometry" />
        </mxCell>
        <mxCell id="9iry1XHoX7ZCfdPzpy1v-9" value="Login/logout" style="ellipse;whiteSpace=wrap;html=1;" vertex="1" parent="9iry1XHoX7ZCfdPzpy1v-20">
          <mxGeometry x="190" y="140" width="140" height="70" as="geometry" />
        </mxCell>
        <mxCell id="9iry1XHoX7ZCfdPzpy1v-22" value="Admin Restaurant Management Module" style="swimlane;whiteSpace=wrap;html=1;" vertex="1" parent="9iry1XHoX7ZCfdPzpy1v-14">
          <mxGeometry y="770" width="510" height="260" as="geometry" />
        </mxCell>
        <mxCell id="9iry1XHoX7ZCfdPzpy1v-5" value="Add restaurant" style="ellipse;whiteSpace=wrap;html=1;" vertex="1" parent="9iry1XHoX7ZCfdPzpy1v-22">
          <mxGeometry x="174" y="30" width="140" height="70" as="geometry" />
        </mxCell>
        <mxCell id="9iry1XHoX7ZCfdPzpy1v-7" value="Delete restaurant" style="ellipse;whiteSpace=wrap;html=1;" vertex="1" parent="9iry1XHoX7ZCfdPzpy1v-22">
          <mxGeometry x="150" y="110" width="140" height="70" as="geometry" />
        </mxCell>
        <mxCell id="9iry1XHoX7ZCfdPzpy1v-32" value="Update restaurant deatil" style="ellipse;whiteSpace=wrap;html=1;" vertex="1" parent="9iry1XHoX7ZCfdPzpy1v-22">
          <mxGeometry x="230" y="180" width="140" height="70" as="geometry" />
        </mxCell>
        <mxCell id="9iry1XHoX7ZCfdPzpy1v-23" value="Admin Menu Management Module" style="swimlane;whiteSpace=wrap;html=1;" vertex="1" parent="9iry1XHoX7ZCfdPzpy1v-14">
          <mxGeometry y="1030" width="510" height="260" as="geometry" />
        </mxCell>
        <mxCell id="9iry1XHoX7ZCfdPzpy1v-4" value="Add menu item" style="ellipse;whiteSpace=wrap;html=1;" vertex="1" parent="9iry1XHoX7ZCfdPzpy1v-23">
          <mxGeometry x="50" y="105" width="140" height="70" as="geometry" />
        </mxCell>
        <mxCell id="9iry1XHoX7ZCfdPzpy1v-3" value="Delete menu item" style="ellipse;whiteSpace=wrap;html=1;" vertex="1" parent="9iry1XHoX7ZCfdPzpy1v-23">
          <mxGeometry x="210" y="35" width="140" height="70" as="geometry" />
        </mxCell>
        <mxCell id="9iry1XHoX7ZCfdPzpy1v-38" value="Update menu item" style="ellipse;whiteSpace=wrap;html=1;" vertex="1" parent="9iry1XHoX7ZCfdPzpy1v-23">
          <mxGeometry x="330" y="180" width="140" height="70" as="geometry" />
        </mxCell>
        <mxCell id="9iry1XHoX7ZCfdPzpy1v-21" value="User Module" style="swimlane;whiteSpace=wrap;html=1;" vertex="1" parent="9iry1XHoX7ZCfdPzpy1v-14">
          <mxGeometry y="310" width="510" height="460" as="geometry" />
        </mxCell>
        <mxCell id="9iry1XHoX7ZCfdPzpy1v-10" value="Search for resturant" style="ellipse;whiteSpace=wrap;html=1;" vertex="1" parent="9iry1XHoX7ZCfdPzpy1v-21">
          <mxGeometry x="150" y="60" width="140" height="70" as="geometry" />
        </mxCell>
        <mxCell id="9iry1XHoX7ZCfdPzpy1v-11" value="View Resturant details&lt;br&gt;" style="ellipse;whiteSpace=wrap;html=1;" vertex="1" parent="9iry1XHoX7ZCfdPzpy1v-21">
          <mxGeometry x="160" y="170" width="140" height="70" as="geometry" />
        </mxCell>
        <mxCell id="9iry1XHoX7ZCfdPzpy1v-8" value="View Total amount for order" style="ellipse;whiteSpace=wrap;html=1;" vertex="1" parent="9iry1XHoX7ZCfdPzpy1v-21">
          <mxGeometry x="160" y="350" width="140" height="70" as="geometry" />
        </mxCell>
        <mxCell id="9iry1XHoX7ZCfdPzpy1v-6" value="View Menu Items" style="ellipse;whiteSpace=wrap;html=1;" vertex="1" parent="9iry1XHoX7ZCfdPzpy1v-21">
          <mxGeometry x="160" y="255" width="140" height="70" as="geometry" />
        </mxCell>
        <mxCell id="9iry1XHoX7ZCfdPzpy1v-37" value="&amp;lt;&amp;lt;extend&amp;gt;&amp;gt;" style="edgeStyle=none;html=1;startArrow=open;endArrow=none;startSize=12;verticalAlign=bottom;dashed=1;labelBackgroundColor=none;rounded=0;entryX=1;entryY=0.5;entryDx=0;entryDy=0;exitX=1;exitY=0;exitDx=0;exitDy=0;" edge="1" parent="9iry1XHoX7ZCfdPzpy1v-14" source="9iry1XHoX7ZCfdPzpy1v-32" target="9iry1XHoX7ZCfdPzpy1v-11">
          <mxGeometry width="160" relative="1" as="geometry">
            <mxPoint x="180" y="770" as="sourcePoint" />
            <mxPoint x="340" y="770" as="targetPoint" />
            <Array as="points">
              <mxPoint x="490" y="700" />
            </Array>
          </mxGeometry>
        </mxCell>
        <mxCell id="9iry1XHoX7ZCfdPzpy1v-39" value="&amp;lt;&amp;lt;extend&amp;gt;&amp;gt;" style="edgeStyle=none;html=1;startArrow=open;endArrow=none;startSize=12;verticalAlign=bottom;dashed=1;labelBackgroundColor=none;rounded=0;entryX=1;entryY=0.5;entryDx=0;entryDy=0;" edge="1" parent="9iry1XHoX7ZCfdPzpy1v-14" source="9iry1XHoX7ZCfdPzpy1v-38" target="9iry1XHoX7ZCfdPzpy1v-6">
          <mxGeometry width="160" relative="1" as="geometry">
            <mxPoint x="260" y="990" as="sourcePoint" />
            <mxPoint x="340" y="850" as="targetPoint" />
            <Array as="points">
              <mxPoint x="450" y="820" />
            </Array>
          </mxGeometry>
        </mxCell>
        <mxCell id="9iry1XHoX7ZCfdPzpy1v-24" value="" style="endArrow=none;html=1;rounded=0;entryX=0;entryY=0.5;entryDx=0;entryDy=0;exitX=0.5;exitY=0.5;exitDx=0;exitDy=0;exitPerimeter=0;" edge="1" parent="1" source="9iry1XHoX7ZCfdPzpy1v-2" target="9iry1XHoX7ZCfdPzpy1v-12">
          <mxGeometry width="50" height="50" relative="1" as="geometry">
            <mxPoint x="100" y="190" as="sourcePoint" />
            <mxPoint x="150" y="140" as="targetPoint" />
          </mxGeometry>
        </mxCell>
        <mxCell id="9iry1XHoX7ZCfdPzpy1v-25" value="" style="endArrow=none;html=1;rounded=0;entryX=0.082;entryY=0.771;entryDx=0;entryDy=0;exitX=0.5;exitY=0.5;exitDx=0;exitDy=0;exitPerimeter=0;entryPerimeter=0;" edge="1" parent="1" source="9iry1XHoX7ZCfdPzpy1v-2" target="9iry1XHoX7ZCfdPzpy1v-9">
          <mxGeometry width="50" height="50" relative="1" as="geometry">
            <mxPoint x="115" y="190" as="sourcePoint" />
            <mxPoint x="230" y="135" as="targetPoint" />
          </mxGeometry>
        </mxCell>
        <mxCell id="9iry1XHoX7ZCfdPzpy1v-26" value="" style="endArrow=none;html=1;rounded=0;entryX=0.5;entryY=0.5;entryDx=0;entryDy=0;entryPerimeter=0;" edge="1" parent="1" target="9iry1XHoX7ZCfdPzpy1v-2">
          <mxGeometry width="50" height="50" relative="1" as="geometry">
            <mxPoint x="100" y="805" as="sourcePoint" />
            <mxPoint x="520" y="370" as="targetPoint" />
          </mxGeometry>
        </mxCell>
        <mxCell id="9iry1XHoX7ZCfdPzpy1v-27" value="" style="endArrow=none;html=1;rounded=0;entryX=0;entryY=0.5;entryDx=0;entryDy=0;" edge="1" parent="1" target="9iry1XHoX7ZCfdPzpy1v-10">
          <mxGeometry width="50" height="50" relative="1" as="geometry">
            <mxPoint x="100" y="425" as="sourcePoint" />
            <mxPoint x="520" y="330" as="targetPoint" />
          </mxGeometry>
        </mxCell>
        <mxCell id="9iry1XHoX7ZCfdPzpy1v-29" value="" style="endArrow=none;html=1;rounded=0;entryX=0;entryY=0.5;entryDx=0;entryDy=0;" edge="1" parent="1" target="9iry1XHoX7ZCfdPzpy1v-6">
          <mxGeometry width="50" height="50" relative="1" as="geometry">
            <mxPoint x="100" y="620" as="sourcePoint" />
            <mxPoint x="540" y="350" as="targetPoint" />
          </mxGeometry>
        </mxCell>
        <mxCell id="9iry1XHoX7ZCfdPzpy1v-30" value="" style="endArrow=none;html=1;rounded=0;entryX=0;entryY=0.5;entryDx=0;entryDy=0;" edge="1" parent="1" target="9iry1XHoX7ZCfdPzpy1v-8">
          <mxGeometry width="50" height="50" relative="1" as="geometry">
            <mxPoint x="100" y="720" as="sourcePoint" />
            <mxPoint x="550" y="360" as="targetPoint" />
          </mxGeometry>
        </mxCell>
        <mxCell id="9iry1XHoX7ZCfdPzpy1v-31" value="" style="endArrow=none;html=1;rounded=0;entryX=0;entryY=0.5;entryDx=0;entryDy=0;" edge="1" parent="1" target="9iry1XHoX7ZCfdPzpy1v-11">
          <mxGeometry width="50" height="50" relative="1" as="geometry">
            <mxPoint x="100" y="535" as="sourcePoint" />
            <mxPoint x="560" y="370" as="targetPoint" />
            <Array as="points" />
          </mxGeometry>
        </mxCell>
        <mxCell id="9iry1XHoX7ZCfdPzpy1v-33" value="" style="endArrow=none;html=1;rounded=0;entryX=0.5;entryY=0.5;entryDx=0;entryDy=0;entryPerimeter=0;" edge="1" parent="1" target="9iry1XHoX7ZCfdPzpy1v-1">
          <mxGeometry width="50" height="50" relative="1" as="geometry">
            <mxPoint x="896" y="1474" as="sourcePoint" />
            <mxPoint x="520" y="1050" as="targetPoint" />
          </mxGeometry>
        </mxCell>
        <mxCell id="9iry1XHoX7ZCfdPzpy1v-34" value="" style="endArrow=none;html=1;rounded=0;" edge="1" parent="1" source="9iry1XHoX7ZCfdPzpy1v-5">
          <mxGeometry width="50" height="50" relative="1" as="geometry">
            <mxPoint x="650" y="920" as="sourcePoint" />
            <mxPoint x="900" y="980" as="targetPoint" />
          </mxGeometry>
        </mxCell>
        <mxCell id="9iry1XHoX7ZCfdPzpy1v-35" value="" style="endArrow=none;html=1;rounded=0;exitX=1;exitY=0.5;exitDx=0;exitDy=0;" edge="1" parent="1" source="9iry1XHoX7ZCfdPzpy1v-32">
          <mxGeometry width="50" height="50" relative="1" as="geometry">
            <mxPoint x="470" y="1080" as="sourcePoint" />
            <mxPoint x="900" y="1020" as="targetPoint" />
          </mxGeometry>
        </mxCell>
        <mxCell id="9iry1XHoX7ZCfdPzpy1v-36" value="" style="endArrow=none;html=1;rounded=0;exitX=1;exitY=0.5;exitDx=0;exitDy=0;" edge="1" parent="1" source="9iry1XHoX7ZCfdPzpy1v-7">
          <mxGeometry width="50" height="50" relative="1" as="geometry">
            <mxPoint x="470" y="1080" as="sourcePoint" />
            <mxPoint x="900" y="1000" as="targetPoint" />
          </mxGeometry>
        </mxCell>
        <mxCell id="9iry1XHoX7ZCfdPzpy1v-40" value="" style="edgeStyle=none;html=1;endArrow=none;verticalAlign=bottom;rounded=0;exitX=1;exitY=0.5;exitDx=0;exitDy=0;" edge="1" parent="1" source="9iry1XHoX7ZCfdPzpy1v-3">
          <mxGeometry width="160" relative="1" as="geometry">
            <mxPoint x="580" y="1160" as="sourcePoint" />
            <mxPoint x="900" y="1130" as="targetPoint" />
          </mxGeometry>
        </mxCell>
        <mxCell id="9iry1XHoX7ZCfdPzpy1v-41" value="" style="edgeStyle=none;html=1;endArrow=none;verticalAlign=bottom;rounded=0;exitX=1.007;exitY=0.386;exitDx=0;exitDy=0;exitPerimeter=0;" edge="1" parent="1" source="9iry1XHoX7ZCfdPzpy1v-38">
          <mxGeometry width="160" relative="1" as="geometry">
            <mxPoint x="650" y="1130" as="sourcePoint" />
            <mxPoint x="900" y="1297" as="targetPoint" />
          </mxGeometry>
        </mxCell>
        <mxCell id="9iry1XHoX7ZCfdPzpy1v-42" value="" style="edgeStyle=none;html=1;endArrow=none;verticalAlign=bottom;rounded=0;exitX=1;exitY=0.5;exitDx=0;exitDy=0;" edge="1" parent="1" source="9iry1XHoX7ZCfdPzpy1v-4">
          <mxGeometry width="160" relative="1" as="geometry">
            <mxPoint x="660" y="1140" as="sourcePoint" />
            <mxPoint x="900" y="1205" as="targetPoint" />
          </mxGeometry>
        </mxCell>
        <mxCell id="9iry1XHoX7ZCfdPzpy1v-44" value="" style="edgeStyle=none;html=1;endArrow=none;verticalAlign=bottom;rounded=0;entryX=0.957;entryY=0.7;entryDx=0;entryDy=0;entryPerimeter=0;" edge="1" parent="1" target="9iry1XHoX7ZCfdPzpy1v-9">
          <mxGeometry width="160" relative="1" as="geometry">
            <mxPoint x="900" y="230" as="sourcePoint" />
            <mxPoint x="650" y="830" as="targetPoint" />
          </mxGeometry>
        </mxCell>
        <mxCell id="9iry1XHoX7ZCfdPzpy1v-45" value="" style="edgeStyle=none;html=1;endArrow=none;verticalAlign=bottom;rounded=0;exitX=0.5;exitY=0;exitDx=0;exitDy=0;exitPerimeter=0;" edge="1" parent="1" source="9iry1XHoX7ZCfdPzpy1v-1">
          <mxGeometry width="160" relative="1" as="geometry">
            <mxPoint x="890" y="870" as="sourcePoint" />
            <mxPoint x="900" y="80" as="targetPoint" />
          </mxGeometry>
        </mxCell>
        <mxCell id="9iry1XHoX7ZCfdPzpy1v-46" value="" style="edgeStyle=none;html=1;endArrow=none;verticalAlign=bottom;rounded=0;entryX=1.007;entryY=0.614;entryDx=0;entryDy=0;entryPerimeter=0;" edge="1" parent="1" target="9iry1XHoX7ZCfdPzpy1v-12">
          <mxGeometry width="160" relative="1" as="geometry">
            <mxPoint x="900" y="170" as="sourcePoint" />
            <mxPoint x="574" y="239" as="targetPoint" />
          </mxGeometry>
        </mxCell>
      </root>
    </mxGraphModel>
  </diagram>
</mxfile>
